<?xml version="1.0" encoding="UTF-8"?>
<svg version="1.1" viewBox="0 0 1850 600" xmlns="http://www.w3.org/2000/svg" fill="none">
<path transform="translate(0)" d="m0 0h2e3v2e3h-2e3z" fill="rgba(0, 0, 0, 0)"/>


<path transform="translate(500,110) scale(0.7)" d="m0 0h156l33 2 22 4 16 5 12 5 19 10 16 11 13 11 16 16 10 13 10 16 10 21 7 21 3 14 2 21 1 27v133l-1 32-3 22-6 21-10 24-11 19-10 13-9 10-7 8-15 13-10 7-14 8-19 9-21 7-19 4-25 2h-176l-27-1-17-2-17-4-20-7-23-11-16-11-14-12-9-9-7-8-11-14-11-18-8-17-6-18-4-18-2-18-1-31v-148l2-30 4-19 7-20 8-17 12-19 12-14 11-12 10-9 11-9 15-10 16-8 15-6 19-5 13-2 14-1z" fill="rgba(255, 255, 255, 0.2)"/>
<path  transform="translate(630,190) scale(0.11)" fill="#FDFDFD" d="m0 0h39l25 3 25 6 25 9 23 11 16 10 14 10 14 12 8 8 6 5v2h2l9 11 11 15 10 16 10 19 8 20 7 23 4 21 2 20v31l-3 26-6 25-6 18-10 23-13 22-14 19-9 11h-2l-2 4-76 76-5 6h-2l-2 4h-2l-2 4h-2l-2 4-126 126-5 6-7 6-5 6-7 6-7 8-27 27h-2l6 59 16 148 27 248 25 228 23 211 10 89v24l-5 23-8 21-9 17-7 11-12 17-13 15-9 10-11 12-9 11-7 7-7 8-9 10-9 11-7 7-7 8-10 10-11 10-14 9-19 9-17 5-21 3h-14l-20-3-17-5-21-10-14-10-10-9-9-9-11-16-9-17-55-165-14-43-67-201-14-43-60-180-9-19-13-23-9-16-3-1-8 7-13 11-11 10-8 7-14 12-10 9-8 7-10 9-11 9-13 12-8 7-14 12-12 11-11 9-13 12-8 7-14 12-10 9-8 7-10 9-11 9-13 12-11 9-13 12-8 7-15 13-11 10-8 7-14 12-10 9-7 6 1 21 19 207 1 13v28l-3 19-4 15-5 12-9 16-8 10-9 10-6 7-7 6-5 6-7 6-5 6-7 6-5 6-7 6-5 6-7 6-5 6-7 6-5 6-7 6-12 12-13 9-14 7-16 5-12 2h-23l-16-3-16-6-14-8-15-13-9-11-6-9-10-22-15-36-14-33-15-36-19-45-36-86-16-38-7-16-36-15-37-15-49-20-81-33-88-36-19-9-12-9-13-13-10-15-7-15-5-20v-26l3-14 4-12 8-16 11-14 101-101 14-11 15-9 16-7 21-5 8-1h21l227 21 19 1v-2h2l2-4 13-14 7-8 9-10 11-12 9-10 7-8 9-10 7-8 12-13 9-11 7-8h2l2-4 7-8h2l2-4 3-4h2l2-4 13-14 1-2h2l2-4 13-14 7-8 9-10 11-12 9-10 7-8 18-20 11-12 7-8 9-10 7-8 12-13 9-11 16-17 7-8 4-5-16-9-23-13-17-9-41-14-43-14-51-17-38-13-43-14-111-37-40-13-264-88-16-7-14-9-10-8-14-14-11-15-8-15-6-16-4-20-1-10v-13l3-21 5-17 6-13 6-11 12-16 16-16 8-7 14-12 13-12 11-9 15-14 11-9 11-10 11-9 13-10 17-11 17-9 15-6 17-5 19-3h14l76 8 275 30 551 60 72 8h12l108-108h2l2-4 6-5 127-127h2v-2h2v-2h2v-2h2v-2h2v-2h2v-2h2v-2h2v-2h2v-2h2v-2l8-7 13-13 14-11 14-10 22-12 20-9 25-8 25-5zm5 128-15 3-16 6-13 7-10 8-10 9-100 100-6 5-6 7-4 3v2l-4 2v2l-4 2v2l-4 2v2l-4 2v2l-4 2v2l-4 2-129 129-6 5-6 7-8 7-11 11-13 8-15 5-6 1h-17l-102-11-870-95-33-3-14 7-9 7-13 11-8 7-10 9-8 7-10 9-8 7-10 9-8 7-10 9-8 6v2l16 6 40 13 38 13 40 13 72 24 37 12 38 13 40 13 159 53 40 13 108 36 25 12 21 12 45 25 50 28 12 8 7 6 8 11 6 13 3 14v11l-3 15-8 16-8 10-12 14-13 14-7 8-9 10-1 3h-2l-9 11-8 8-7 8-18 20-7 8-12 13-7 8-10 11-7 8-1 3h-2l-7 8-10 11-7 8-18 20-11 12-7 8-9 10-7 8-11 12-18 20-7 8-9 10-12 13-7 8-9 10-7 8-2 4h-2l-9 11-7 7-7 8-11 12-7 8-9 10-11 12-7 8-10 11-7 8-9 8-16 8-12 3h-23l-263-24-5 1-25 25v2l-4 2v2h-2l-7 8-22 22 28 12 47 19 145 59 27 11 34 14 14 8 9 8 7 10 7 14 15 36 18 43 17 40 13 31 19 45 13 31 19 45 4 9 4-2 59-59v-10l-22-237-3-32v-12l3-14 4-9 7-11 9-10 14-12 11-10 8-7 14-12 12-11 11-9 13-12 8-7 10-9 11-9 13-12 8-7 14-12 12-11 11-9 13-12 8-7 10-9 11-9 14-13 11-9 13-12 8-7 14-12 10-9 8-7 11-10 11-9 13-12 11-9 14-13 8-7 14-12 10-9 8-7 11-10 8-7 13-11 11-7 12-5 11-2h15l14 3 13 7 11 9 10 14 13 23 15 27 13 23 15 27 12 21 8 15 9 25 29 88 36 108 14 43 54 162 14 43 55 165 4-1 9-11 15-16 9-10 11-12 7-8 11-12v-2h2l7-8 13-16 8-13 2-6-2-24-16-145-27-247-25-228-21-193-18-163-1-11v-9l3-14 4-10 9-13 50-50v-2h2v-2h2v-2h2l6-7 6-5 6-7 147-147v-2l4-2v-2l4-2v-2l3-1 5-6 72-72 7-10 5-9 6-13 4-16 1-6v-26l-4-19-6-16-9-15-7-9-9-9-14-10-17-9-20-6-8-1z"/>
<path transform="translate(500,110) scale(0.7)" d="m0 0h156l33 2 22 4 16 5 12 5 19 10 16 11 13 11 16 16 10 13 10 16 10 21 7 21 3 14 2 21 1 27v133l-1 32-3 22-6 21-10 24-11 19-10 13-9 10-7 8-15 13-10 7-14 8-19 9-21 7-19 4-25 2h-176l-27-1-17-2-17-4-20-7-23-11-16-11-14-12-9-9-7-8-11-14-11-18-8-17-6-18-4-18-2-18-1-31v-148l2-30 4-19 7-20 8-17 12-19 12-14 11-12 10-9 11-9 15-10 16-8 15-6 19-5 13-2 14-1zm-21 5-26 2-18 3-21 7-20 10-14 9-12 9-14 12-12 13-12 16-9 16-8 17-6 20-3 22-1 17-1 43v100l1 34 2 23 3 15 6 18 9 19 8 13 12 16 11 12 12 12 13 10 15 9 14 7 19 7 23 5 20 2 55 1h33l116-1 20-2 23-5 16-6 21-11 16-11 14-12 11-11 11-14 10-15 9-17 8-21 4-18 2-18 1-41v-116l-1-35-2-22-4-19-10-25-11-19-9-12-9-10-4-5-8-7-12-10-20-13-16-8-20-8-17-4-32-3z" fill="#E9EAE9"/>



<path transform="translate(1428,223) " d="m0 0h21l16 4 14 7 10 8 7 8 6 10 6 15 4 15 2 13 1 13v26l-2 20-5 20-7 16-6 10-9 10-9 7-14 7-13 4h-24l-15-4-16-8-10-9-6-7-2-3v-3h-2v110h-53l-1-240v-44h52l2 29 4-4 6-8 10-9 17-9z M-16 37h11l13 4 9 7 7 10 4 10 4 21v38l-3 15-5 13-8 11-9 7-10 4h-15l-12-5-8-7-7-11-6-16-3-16v-29l2-13 4-14 7-13 6-7 9-6z" fill="#7BF1A8" fill-rule="evenodd"/>
<path transform="translate(1647,227)" d="m0 0h49l4 4 13 38 12 36 16 49 8 27 1 1 9-35 9-31 20-65 8-22 3-2h52l1 3-66 176-15 39-7 15-8 15-9 13-11 11-14 8-13 4-6 1h-34l-8-1-2-2v-36l27-1 10-3 8-6 7-9 8-16 2-5v-6l-31-77-38-95-10-26v-1z" fill="#FEFEFE"/>
<path transform="translate(826,165)" d="m0 0h222l6 1v42l-67 1h-19v167l-1 56h-55v-157l-1-66-85-1z" fill="#7BF1A8"/>
<path transform="translate(1559,151)" d="m0 0h51l1 1v280h-53l-1-1v-279z" fill="#FEFEFE"/>
<path transform="translate(1157,223)" d="m0 0h10l11 1 3 1v45l-16-1h-12l-11 3-8 6-7 8-6 10-2 9-2 68-1 59h-52l-1-172v-33l51 1 1 10 1 30h2l2-9 4-9 9-13 10-9 8-4z" fill="#7BF1A8"/>
<path transform="translate(1214,226)" d="m0 0 52 1 1 2v202l-1 1h-52l-1-205z" fill="#7BF1A8"/>

<path transform="translate(1213,152)" d="m0 0h54l-1 39h-52z" fill="#7BF1A8"/>
</svg>


