<svg viewBox="0 0 512 512" xmlns="http://www.w3.org/2000/svg" fill="none">
  <g transform="translate(130,380) scale(0.05,-0.05)" fill="#ffffffff" stroke="none">
    <path d="M2365 5114 c-286 -29 -503 -80 -733 -169 -595 -233 -1089 -690 -1373
    -1269 -121 -249 -199 -507 -241 -801 -17 -118 -17 -512 0 -630 80 -563 312
    -1048 692 -1449 403 -425 929 -691 1535 -778 118 -17 512 -17 630 0 294 42
    552 120 800 241 721 354 1239 1022 1394 1796 38 188 46 277 46 505 0 228 -8
    317 -46 505 -101 504 -365 981 -745 1345 -189 182 -400 328 -649 451 -239 117
    -478 191 -755 234 -101 15 -468 28 -555 19z m45 -559 c0 -237 2 -259 20 -295
    23 -45 80 -80 130 -80 50 0 107 35 130 80 18 36 20 58 20 295 l0 255 43 0 c60
    0 265 -35 377 -64 442 -115 863 -380 1152 -726 217 -258 382 -576 464 -890 29
    -112 64 -317 64 -377 l0 -43 -255 0 c-237 0 -259 -2 -295 -20 -45 -23 -80 -80
    -80 -130 0 -50 35 -107 80 -130 36 -18 58 -20 295 -20 l255 0 0 -42 c0 -61
    -35 -266 -64 -378 -203 -782 -833 -1412 -1616 -1616 -112 -29 -317 -64 -377
    -64 l-43 0 0 255 c0 237 -2 259 -20 295 -23 45 -80 80 -130 80 -50 0 -107 -35
    -130 -80 -18 -36 -20 -58 -20 -295 l0 -255 -42 0 c-61 0 -266 35 -378 64 -439
    114 -864 382 -1152 725 -217 260 -382 577 -464 891 -29 112 -64 317 -64 378
    l0 42 255 0 c237 0 259 2 295 20 45 23 80 80 80 130 0 50 -35 107 -80 130 -36
    18 -58 20 -295 20 l-255 0 0 43 c0 23 9 96 20 162 119 733 581 1354 1245 1676
    247 119 584 213 783 218 l52 1 0 -255z"/>
    <path d="M2947 3487 c-444 -254 -818 -472 -830 -483 -12 -12 -230 -386 -484
    -832 -437 -764 -463 -812 -463 -858 0 -87 58 -144 144 -144 47 0 92 24 858
    461 444 254 818 471 830 484 13 13 231 387 486 833 436 764 462 812 462 858 0
    87 -58 144 -145 144 -47 -1 -91 -24 -858 -463z m435 -119 c-11 -18 -131 -228
    -267 -467 l-248 -433 -198 198 c-109 109 -196 201 -193 204 6 5 916 528 922
    529 2 1 -5 -14 -16 -31z m-740 -1119 c-4 -4 -209 -123 -457 -264 -247 -142
    -454 -260 -459 -263 -6 -3 0 10 11 29 11 19 132 229 268 468 l248 433 198
    -198 c109 -109 195 -202 191 -205z"/>
  </g>

  <path transform="translate(190,10) scale(0.92)" 
        stroke="#ffffffff" 
        stroke-width="5"
        d="m0 0h156l33 2 22 4 16 5 12 5 19 10 16 11 13 11 16 16 10 13 10 16 10 21 7 21 3 14 2 21 1 27v133l-1 32-3 22-6 21-10 24-11 19-10 13-9 10-7 8-15 13-10 7-14 8-19 9-21 7-19 4-25 2h-176l-27-1-17-2-17-4-20-7-23-11-16-11-14-12-9-9-7-8-11-14-11-18-8-17-6-18-4-18-2-18-1-31v-148l2-30 4-19 7-20 8-17 12-19 12-14 11-12 10-9 11-9 15-10 16-8 15-6 19-5 13-2 14-1zm-21 5-26 2-18 3-21 7-20 10-14 9-12 9-14 12-12 13-12 16-9 16-8 17-6 20-3 22-1 17-1 43v100l1 34 2 23 3 15 6 18 9 19 8 13 12 16 11 12 12 12 13 10 15 9 14 7 19 7 23 5 20 2 55 1h33l116-1 20-2 23-5 16-6 21-11 16-11 14-12 11-11 11-14 10-15 9-17 8-21 4-18 2-18 1-41v-116l-1-35-2-22-4-19-10-25-11-19-9-12-9-10-4-5-8-7-12-10-20-13-16-8-20-8-17-4-32-3z" 
        fill="#ffffffff"/>
</svg>